<?xml version="1.0" encoding="UTF-8" standalone="no"?>
<!-- Created with Inkscape (http://www.inkscape.org/) -->

<svg
   version="1.1"
   id="svg854"
   xml:space="preserve"
   width="1600"
   height="1600"
   viewBox="0 0 1600 1600"
   xmlns="http://www.w3.org/2000/svg"
   xmlns:svg="http://www.w3.org/2000/svg"><defs
     id="defs858" /><g
     id="g860"
     transform="matrix(1.3333333,0,0,-1.3333333,0,1600)"><g
       id="g862"
       transform="scale(0.1)"><path
         d="m 8630,5857.03 c 0,-97.47 -85.44,-177.22 -189.85,-177.22 -104.43,0 -189.87,79.75 -189.87,177.22 v 406.54 H 5279.57 c -270.96,0 -491.4,-205.75 -491.4,-458.66 V 4720.79 h 22.33 c 61.43,0 111.69,-46.91 111.69,-104.25 0,-57.33 -50.26,-104.24 -111.69,-104.24 H 3425.66 c -61.43,0 -111.68,46.91 -111.68,104.24 0,57.34 50.25,104.25 111.68,104.25 H 3448 v 1084.12 c 0,942.66 821.64,1709.57 1831.57,1709.57 h 223.36 v 208.49 c 0,137.6 120.61,250.18 268.03,250.18 h 513.74 v 459.73 c -106.35,8.31 -195.33,75.16 -229.97,165.72 h -864.51 c -98.28,0 -178.69,75.06 -178.69,166.8 0,91.73 80.41,166.78 178.69,166.78 h 864.51 c 34.64,90.57 123.62,157.42 229.97,165.73 v 21.91 c 0,137.6 120.61,250.18 268.03,250.18 h 156.35 c 147.42,0 268.04,-112.58 268.04,-250.18 v -20.85 c 116.08,0 215.26,-69.93 252.3,-166.79 h 886.85 c 98.28,0 178.69,-75.05 178.69,-166.78 0,-91.74 -80.41,-166.8 -178.69,-166.8 h -886.85 c -37.04,-96.85 -136.22,-166.78 -252.3,-166.78 v -458.67 h 536.06 c 147.43,0 268.04,-112.58 268.04,-250.18 v -208.49 h 469.06 v 489.94 c 0,97.47 85.44,177.22 189.87,177.22 104.41,0 189.85,-79.75 189.85,-177.22 z M 4031.22,2490 c -1362.51,291.87 0,1918.06 0,1918.06 1585.87,-1834.66 0,-1918.06 0,-1918.06 z M 5935,10650 c -2620.59,0 -4745,-2124.41 -4745,-4745 0,-2620.59 2124.41,-4745 4745,-4745 2620.59,0 4745,2124.41 4745,4745 0,2620.59 -2124.41,4745 -4745,4745"
         style="fill:#11100e;fill-opacity:1;fill-rule:nonzero;stroke:none"
         id="path864" /><path
         d="m 3559.68,3365.63 c 0,0 -156.35,-625.44 513.73,-729.69 0,0 -357.38,125.1 -513.73,729.69"
         style="fill:#11100e;fill-opacity:1;fill-rule:nonzero;stroke:none"
         id="path866" /></g></g></svg>
